Coordinates
version=1
nRows=25
nColumns=23
inDegrees=yes

Units are S.I. units (second, meters, Newtons, ...)
If the header above contains a line with 'inDegrees', this indicates whether rotational values are in degrees (yes) or radians (no).

endheader
time	pelvis_tilt	pelvis_list	pelvis_rotation	pelvis_tx	pelvis_ty	pelvis_tz	hip_flexion_r	hip_adduction_r	hip_rotation_r	knee_angle_r	knee_angle_r_beta	ankle_angle_r	subtalar_angle_r	mtp_angle_r	hip_flexion_l	hip_adduction_l	hip_rotation_l	knee_angle_l	knee_angle_l_beta	ankle_angle_l	subtalar_angle_l	mtp_angle_l
     15.00000000	    -10.72312352	      3.14555518	      6.19549941	      2.06292836	      0.95297142	      1.01110092	     27.05573907	     -6.31641589	     -3.30008990	    106.20154039	      1.85356655	      4.49283675	     -0.42258534	      0.00000000	     30.56125324	      5.31197542	     -1.34275202	     49.84830841	      0.87001711	     26.80678027	      0.27884713	      0.00000000
     15.00666667	    -10.72926424	      2.95611378	      6.14104019	      2.06219925	      0.95381854	      1.01082951	     28.74389136	     -6.27565318	     -3.32580453	    106.41880669	      1.85735856	      4.65233059	     -0.36341273	      0.00000000	     29.21080647	      5.07279612	     -1.13965033	     49.28227601	      0.86013798	     27.26653604	      0.48205133	      0.00000000
     15.01333333	    -10.93146085	      3.11339301	      5.84214675	      2.06148596	      0.95468661	      1.01089658	     30.71151913	     -6.48499133	     -2.96198214	    106.54895394	      1.85963006	      5.07502593	      0.04274974	      0.00000000	     27.92980630	      5.01089176	     -1.46819617	     48.50040341	      0.84649173	     27.81389378	      1.04651146	      0.00000000
     15.02000000	    -11.08765151	      3.02231625	      5.67475931	      2.06099078	      0.95629260	      1.01096025	     32.49523164	     -6.43473554	     -2.90041644	    106.24514130	      1.85432753	      5.41443737	      0.37077346	      0.00000000	     26.52664842	      4.77829901	     -1.53104702	     47.52410718	      0.82945214	     28.09123814	      1.50435195	      0.00000000
     15.02666667	    -11.30096082	      2.75466151	      5.59973450	      2.06062368	      0.95832216	      1.01095805	     34.21921946	     -6.22183593	     -3.05138139	    105.58739060	      1.84284761	      5.69853194	      0.53696397	      0.00000000	     25.14927854	      4.45176031	     -1.35805252	     46.43128368	      0.81037878	     28.26188858	      1.82506555	      0.00000000
     15.03333333	    -11.36895949	      2.75812910	      5.32661294	      2.06067234	      0.96110247	      1.01120892	     35.71280809	     -6.17367832	     -2.95974557	    104.69196151	      1.82721943	      6.15873201	      0.99832703	      0.00000000	     23.39736665	      4.23483607	     -1.65193682	     44.97332455	      0.78493259	     28.24265123	      2.55325505	      0.00000000
     15.04000000	    -11.47945633	      2.56469776	      5.15722583	      2.06092147	      0.96428012	      1.01142097	     37.08968223	     -5.94605941	     -3.11226180	    103.44192040	      1.80540210	      6.51139243	      1.18985694	      0.00000000	     21.68445078	      3.88207814	     -1.74686436	     43.45380714	      0.75841201	     28.10867280	      3.17722179	      0.00000000
     15.04666667	    -11.93851666	      2.18134446	      5.10087568	      2.06111328	      0.96737601	      1.01151012	     38.73833323	     -5.61650114	     -3.48100600	    101.92125251	      1.77886143	      6.87014995	      1.28814749	      0.00000000	     20.38466671	      3.45586852	     -1.57771622	     41.94736335	      0.73211960	     27.99066253	      3.60227130	      0.00000000
     15.05333333	    -11.69665006	      2.06372421	      4.79117194	      2.06218196	      0.97200363	      1.01188966	     39.43078089	     -5.35072220	     -3.60901113	    100.06145528	      1.74640185	      7.17175281	      1.24470929	      0.00000000	     18.04101959	      3.07985656	     -1.96448439	     39.92580856	      0.69683682	     27.25452890	      4.48724374	      0.00000000
     15.06000000	    -12.26406634	      1.63465795	      4.70412984	      2.06290076	      0.97570524	      1.01201587	     40.91254195	     -4.96188750	     -4.06494409	     98.00442462	      1.71049989	      7.54977268	      1.27283554	      0.00000000	     16.77769030	      2.60593422	     -1.86492808	     38.21428799	      0.66696515	     26.71845599	      5.03073805	      0.00000000
     15.06666667	    -11.70836345	      1.44978134	      4.35362028	      2.06470284	      0.98144666	      1.01240060	     40.91884463	     -4.60550304	     -4.32200515	     95.55276814	      1.66771041	      7.74614671	      0.80709416	      0.00000000	     13.96406833	      2.13993787	     -2.39965546	     35.85248924	      0.62574398	     25.21242793	      5.81097881	      0.00000000
     15.07333333	    -11.70456976	      1.13137242	      4.10657280	      2.06638575	      0.98653693	      1.01264354	     41.42546512	     -4.21726645	     -4.71997301	     92.93100499	      1.62195201	      8.00084529	      0.41395722	      0.00000000	     11.85827769	      1.68206664	     -2.68650576	     33.64464745	      0.58720987	     23.64508614	      6.38221509	      0.00000000
     15.08000000	    -11.67038108	      0.82246042	      3.80593742	      2.06833920	      0.99178843	      1.01293626	     41.75951979	     -3.80222782	     -5.10230754	     90.08857042	      1.57234217	      8.22369293	     -0.14029509	      0.00000000	      9.69309585	      1.23951113	     -3.07676121	     31.34390295	      0.54705431	     21.76343287	      6.86876350	      0.00000000
     15.08666667	    -11.54070714	      0.48192972	      3.53363978	      2.07051167	      0.99722009	      1.01314435	     41.83331213	     -3.39286143	     -5.56785717	     87.02086595	      1.51880063	      8.45985089	     -0.75686060	      0.00000000	      7.43525340	      0.80516636	     -3.41322375	     29.00241026	      0.50618755	     19.58492991	      7.24906816	      0.00000000
     15.09333333	    -11.50214526	      0.15720769	      3.19609814	      2.07285709	      1.00247761	      1.01348918	     41.89056322	     -2.93225802	     -5.96864695	     83.77316490	      1.46211755	      8.65139921	     -1.52220379	      0.00000000	      5.29096984	      0.39832572	     -3.87285598	     26.66042595	      0.46531221	     17.18927713	      7.61297330	      0.00000000
     15.10000000	    -11.50133306	     -0.19074282	      2.89941313	      2.07524895	      1.00754929	      1.01376276	     41.86571576	     -2.50143862	     -6.45252266	     80.35229830	      1.40241217	      8.83683077	     -2.29133922	      0.00000000	      3.29528036	     -0.00826593	     -4.33139972	     24.47052641	      0.42709126	     14.55893433	      7.91827399	      0.00000000
     15.10666667	    -11.27494641	     -0.52313452	      2.59071791	      2.07783656	      1.01276419	      1.01409825	     41.46697696	     -2.02312631	     -6.89411692	     76.74518001	      1.33945608	      8.99263377	     -3.22370758	      0.00000000	      1.04538838	     -0.34906727	     -4.63701396	     22.22170944	      0.38784200	     11.88217663	      7.94453424	      0.00000000
     15.11333333	    -11.15272173	     -0.82351223	      2.37658394	      2.08038470	      1.01768929	      1.01427236	     41.06944701	     -1.67819577	     -7.44127163	     72.99832329	      1.27406109	      9.22420394	     -3.95410808	      0.00000000	     -1.03776238	     -0.55546474	     -4.47504147	     20.00473883	      0.34914856	      8.92901117	      7.20972971	      0.00000000
     15.12000000	    -11.06890327	     -1.16892753	      2.11827862	      2.08285978	      1.02226871	      1.01470497	     40.62463942	     -1.17114239	     -7.89831434	     69.07081493	      1.20551314	      9.34745062	     -4.96755463	      0.00000000	     -2.86498593	     -0.90779807	     -4.74692375	     18.22543249	      0.31809380	      6.27198225	      7.13764745	      0.00000000
     15.12666667	    -11.06725729	     -1.47871111	      1.89352732	      2.08529051	      1.02639127	      1.01513620	     40.18380171	     -0.71258121	     -8.35730094	     65.03779443	      1.13512365	      9.46825211	     -5.83779158	      0.00000000	     -4.45652919	     -1.22507083	     -4.95433068	     16.73580927	      0.29209497	      3.66599668	      6.74953607	      0.00000000
     15.13333333	    -11.08760861	     -1.75641171	      1.71855792	      2.08759702	      1.03020846	      1.01561198	     39.67302017	     -0.26936210	     -8.79624118	     60.85663598	      1.06214867	      9.58701950	     -6.61597894	      0.00000000	     -5.86712378	     -1.50120581	     -4.99300051	     15.56246638	      0.27161628	      1.22650099	      6.05029152	      0.00000000
     15.14000000	    -11.20550624	     -1.98278783	      1.57496765	      2.08972789	      1.03352418	      1.01607328	     39.19836283	      0.13037156	     -9.20204718	     56.58377883	      0.98757324	      9.74292626	     -7.20284239	      0.00000000	     -6.94903545	     -1.75444845	     -5.07621284	     14.87295986	      0.25958212	     -0.87509996	      5.24519577	      0.00000000
     15.14666667	    -11.29512977	     -2.19062362	      1.46509822	      2.09178741	      1.03651025	      1.01657455	     38.59399334	      0.53774003	     -9.57753495	     52.18871293	      0.91086487	      9.86601027	     -7.66792104	      0.00000000	     -7.86803879	     -2.01807031	     -5.19641395	     14.61698586	      0.25511453	     -2.60403333	      4.24596540	      0.00000000
     15.15333333	    -11.46033275	     -2.32477707	      1.38866885	      2.09365835	      1.03893061	      1.01710804	     38.01311657	      0.89335865	     -9.89114021	     47.74138841	      0.83324442	     10.00275354	     -7.83273096	      0.00000000	     -8.46761930	     -2.24790585	     -5.40789075	     14.90670232	      0.26017104	     -3.99117558	      3.11337639	      0.00000000
     15.16000000	    -11.64390920	     -2.40862416	      1.33342812	      2.09538269	      1.04084157	      1.01765100	     37.38916801	      1.21236324	    -10.15619613	     43.26494631	      0.75511576	     10.14190594	     -7.71101346	      0.00000000	     -8.83901301	     -2.46219099	     -5.71409580	     15.68309475	      0.27372164	     -5.02147011	      1.85265684	      0.00000000
